<?xml version="1.0" encoding="UTF-8"?>
<svg xmlns="http://www.w3.org/2000/svg" viewBox="0 0 96 96">
  <rect fill="#0c0910" width="96" height="96"/>
  <path fill="#07b5d3" d="M42,42.55v21.45c0,2.3.47,3.81,1.41,4.54,1.46,1.15,4.07,1.72,7.83,1.72,5.46,0,10.51-1.17,15.13-3.5,1.77-.9,3.17-1.36,4.17-1.36,1.39,0,2.6.52,3.63,1.57s1.54,2.31,1.54,3.81c0,1.39-.56,2.59-1.67,3.6-1.7,1.63-5.07,3.14-10.1,4.51s-9.26,2.06-12.71,2.06c-6.64,0-11.63-1.43-14.95-4.3s-4.98-6.39-4.98-10.57v-23.53h-3.86c-2.57,0-4.41-.5-5.5-1.49s-1.64-2.29-1.64-3.89.55-2.84,1.64-3.84,2.93-1.49,5.5-1.49h3.86v-9.65c0-2.57.5-4.41,1.49-5.5s2.29-1.64,3.89-1.64,2.84.55,3.84,1.64,1.49,2.93,1.49,5.5v9.65h19.78c2.57,0,4.41.5,5.5,1.49s1.64,2.29,1.64,3.89-.55,2.84-1.64,3.84-2.93,1.49-5.5,1.49h-19.78Z"/>
</svg>